<svg xmlns="http://www.w3.org/2000/svg" viewBox="0 0 980 560" fill="none">
  <g transform="translate(210 86)">
    <rect x="48" y="24" width="220" height="380" rx="40" fill="#1B4332" transform="rotate(-8 48 24)"/>
    <rect x="64" y="48" width="188" height="316" rx="24" fill="#fff" transform="rotate(-8 64 48)"/>
    <rect x="92" y="84" width="96" height="12" rx="6" fill="#58CC02" transform="rotate(-8 92 84)"/>
    <rect x="88" y="112" width="140" height="8" rx="4" fill="#E5E5E5" transform="rotate(-8 88 112)"/>
    <rect x="84" y="132" width="120" height="8" rx="4" fill="#E5E5E5" transform="rotate(-8 84 132)"/>
    <circle cx="130" cy="196" r="36" fill="#E8F8D8" transform="rotate(-8 130 196)"/>
  </g>
  <g transform="translate(470 64)">
    <rect x="40" y="16" width="220" height="380" rx="40" fill="#1B4332" transform="rotate(10 40 16)"/>
    <rect x="56" y="40" width="188" height="316" rx="24" fill="#fff" transform="rotate(10 56 40)"/>
    <rect x="108" y="72" width="96" height="12" rx="6" fill="#1CB0F6" transform="rotate(10 108 72)"/>
    <rect x="112" y="100" width="140" height="8" rx="4" fill="#E5E5E5" transform="rotate(10 112 100)"/>
    <rect x="120" y="120" width="116" height="8" rx="4" fill="#E5E5E5" transform="rotate(10 120 120)"/>
    <rect x="128" y="168" width="88" height="88" rx="20" fill="#FFF0E5" transform="rotate(10 128 168)"/>
  </g>
  <rect x="86" y="92" width="92" height="92" rx="24" fill="#00CD9C"/>
  <circle cx="132" cy="138" r="22" fill="#E8F8D8"/>
  <ellipse cx="124" cy="132" rx="8" ry="12" fill="#1B4332"/>
  <rect x="802" y="78" width="92" height="92" rx="24" fill="#FFC800"/>
  <circle cx="848" cy="124" r="18" fill="#fff"/>
  <circle cx="840" cy="116" r="6" fill="#F59E0B"/>
  <rect x="64" y="348" width="84" height="84" rx="22" fill="#CE82FF"/>
  <rect x="86" y="370" width="40" height="10" rx="5" fill="#fff"/>
  <rect x="86" y="388" width="28" height="8" rx="4" fill="#fff" opacity=".7"/>
  <rect x="820" y="360" width="84" height="84" rx="22" fill="#1CB0F6"/>
  <circle cx="862" cy="402" r="16" fill="#fff"/>
  <rect x="448" y="24" width="64" height="64" rx="18" fill="#FFC800"/>
  <rect x="430" y="430" width="72" height="72" rx="20" fill="#CE82FF"/>
</svg>
